<?xml version="1.0" standalone="no"?>
<!DOCTYPE svg PUBLIC "-//W3C//DTD SVG 20010904//EN"
 "http://www.w3.org/TR/2001/REC-SVG-20010904/DTD/svg10.dtd">
<svg version="1.0" xmlns="http://www.w3.org/2000/svg"
 width="266.000000pt" height="266.000000pt" viewBox="0 0 266.000000 266.000000"
 preserveAspectRatio="xMidYMid meet">
<metadata>
Created by potrace 1.11, written by Peter Selinger 2001-2013
</metadata>
<g transform="translate(0.000000,266.000000) scale(0.100000,-0.100000)"
fill="#000000" stroke="none">
<path d="M1486 2152 c-43 -64 -126 -186 -183 -270 l-104 -152 -76 97 c-41 54
-81 104 -87 111 -13 13 -52 -22 -321 -288 l-110 -109 -113 85 -113 85 -144
-106 c-80 -59 -145 -109 -145 -111 0 -3 3 -3 8 -1 10 6 110 52 205 94 69 30
81 33 95 20 116 -98 191 -157 199 -157 6 0 21 10 35 23 14 12 40 36 59 52 19
17 102 92 186 168 84 75 154 137 156 137 3 0 40 -49 83 -110 44 -60 81 -110
84 -110 3 0 43 55 90 122 134 192 262 372 271 382 5 6 17 -2 29 -17 12 -15 27
-33 34 -40 6 -6 88 -100 181 -207 94 -107 180 -206 192 -220 12 -14 30 -35 41
-48 l20 -22 117 95 c120 97 122 98 155 65 3 -3 23 -19 45 -36 74 -56 180 -137
195 -148 8 -6 -17 27 -55 74 -111 136 -187 225 -196 228 -4 2 -60 -33 -123
-77 -63 -45 -120 -81 -125 -81 -5 0 -62 64 -127 143 -65 78 -121 144 -124 147
-3 3 -54 64 -114 135 -60 72 -116 138 -125 147 -15 16 -21 10 -95 -100z"/>
<path d="M776 1273 c-123 -36 -195 -197 -138 -308 43 -84 118 -128 214 -127
64 1 140 29 170 65 83 94 83 238 1 315 -63 59 -160 80 -247 55z m130 -40 c59
-38 90 -223 50 -305 -33 -67 -114 -82 -168 -31 -73 70 -80 275 -12 334 34 30
86 31 130 2z"/>
<path d="M1896 1281 c-3 -5 -20 -13 -37 -16 -22 -5 -34 -16 -43 -38 -7 -18
-32 -84 -56 -147 -59 -153 -80 -192 -113 -208 -47 -23 -30 -32 63 -32 50 0 90
4 90 8 0 4 -14 13 -31 19 -34 13 -35 29 -10 96 10 26 13 27 80 27 l69 0 12
-52 c14 -55 15 -51 -37 -85 -14 -10 4 -12 98 -12 64 -1 119 2 123 6 4 4 -8 14
-26 23 -32 14 -36 24 -99 212 -36 109 -68 200 -71 203 -3 4 -9 2 -12 -4z m-6
-238 c0 -9 -17 -13 -51 -13 -51 0 -51 0 -46 28 3 15 16 54 28 87 l23 60 23
-75 c13 -41 23 -81 23 -87z"/>
<path d="M2158 1273 c-8 -10 -13 -24 -12 -30 1 -7 2 -41 3 -75 l2 -63 19 23
c20 24 50 110 50 144 0 24 -42 24 -62 1z"/>
<path d="M2379 1271 c-71 -27 -101 -88 -78 -159 9 -26 28 -44 83 -79 82 -53
96 -67 96 -102 -1 -42 -25 -65 -66 -64 -42 1 -79 31 -96 80 -12 33 -32 44 -40
21 -3 -7 0 -32 5 -56 7 -37 14 -46 45 -59 43 -19 132 -19 170 -1 45 22 72 73
67 126 -6 59 -22 82 -87 122 -77 49 -98 70 -98 101 0 74 103 72 141 -2 23 -45
40 -43 35 4 -2 18 -4 38 -5 45 -3 32 -109 46 -172 23z"/>
<path d="M86 1271 c-4 -5 -2 -12 4 -16 5 -3 10 -4 10 0 0 3 9 1 20 -5 19 -10
20 -21 20 -191 l0 -180 -30 -13 c-17 -7 -27 -15 -23 -19 11 -12 273 -8 317 5
120 35 188 165 148 285 -17 53 -87 117 -142 131 -53 13 -316 16 -324 3z m290
-40 c76 -46 102 -223 46 -309 -31 -48 -116 -68 -158 -38 -17 13 -19 29 -21
168 -3 201 -4 198 55 198 29 0 59 -7 78 -19z"/>
<path d="M1125 1271 c-3 -6 1 -11 9 -11 8 0 21 -7 30 -15 12 -13 15 -45 14
-183 -1 -92 -3 -172 -5 -179 -3 -6 -15 -14 -29 -17 -13 -4 -24 -11 -24 -16 0
-6 47 -10 117 -10 119 0 129 5 71 34 -21 11 -23 19 -26 99 -4 120 6 117 98
-24 61 -93 85 -111 156 -111 81 -1 116 35 43 45 -48 6 -87 40 -149 128 -37 53
-39 58 -21 64 10 3 31 17 45 32 52 51 25 137 -50 161 -42 14 -270 16 -279 3z
m229 -34 c22 -16 35 -74 24 -108 -10 -30 -46 -53 -74 -47 -16 3 -19 13 -21 63
-3 84 3 105 30 105 13 0 31 -6 41 -13z"/>
<path d="M890 606 c0 -2 9 -6 20 -9 11 -3 20 -1 20 4 0 5 -9 9 -20 9 -11 0
-20 -2 -20 -4z"/>
<path d="M1278 604 c0 -5 -2 -39 -3 -76 -1 -61 1 -68 18 -68 14 0 17 4 10 13
-5 6 -10 39 -11 71 -2 53 -9 86 -14 60z"/>
<path d="M865 579 c-4 -11 -8 -43 -9 -70 -1 -42 1 -49 17 -49 12 0 16 4 11 12
-4 7 -7 38 -6 70 1 61 -2 72 -13 37z"/>
<path d="M1876 592 c-3 -6 -1 -14 5 -17 15 -10 25 3 12 16 -7 7 -13 7 -17 1z"/>
<path d="M1108 583 c17 -7 15 -33 -3 -33 -8 0 -15 8 -15 17 0 13 -3 14 -12 5
-9 -9 -4 -20 22 -47 28 -29 31 -35 17 -41 -26 -10 -47 3 -47 28 0 19 -2 20
-10 8 -28 -43 11 -75 56 -45 22 14 25 14 30 0 3 -8 13 -15 22 -15 12 0 12 4
-4 21 -19 21 -18 21 9 45 26 22 27 24 7 24 -12 0 -19 -4 -16 -9 3 -5 -1 -15
-10 -22 -13 -10 -17 -10 -25 2 -12 18 -11 26 1 34 13 8 -6 35 -24 34 -7 0 -6
-2 2 -6z"/>
<path d="M50 555 c0 -20 5 -21 285 -21 284 0 286 0 283 20 -3 21 -7 21 -285
21 -278 0 -283 0 -283 -20z"/>
<path d="M2062 555 c3 -19 11 -20 286 -21 279 0 282 0 282 20 0 21 -3 21 -285
21 -280 0 -286 0 -283 -20z"/>
<path d="M682 538 c-30 -30 -2 -86 38 -73 25 8 27 25 2 18 -23 -6 -44 19 -36
41 5 13 14 16 31 11 16 -4 22 -2 18 5 -8 14 -38 13 -53 -2z"/>
<path d="M796 516 c2 -20 -1 -38 -6 -41 -6 -4 -10 1 -10 10 0 9 -4 13 -10 10
-23 -14 -9 -33 23 -32 32 1 33 1 27 41 -6 50 -27 60 -24 12z"/>
<path d="M955 539 c17 -8 16 -9 -7 -6 -20 3 -29 -1 -33 -14 -14 -42 37 -78 63
-46 8 10 5 13 -16 12 -17 0 -28 6 -30 18 -3 13 3 17 28 17 28 0 31 2 20 15 -7
8 -20 15 -29 14 -12 0 -12 -2 4 -10z"/>
<path d="M1330 530 c20 -20 18 -47 -4 -62 -8 -6 -8 -8 0 -8 34 0 51 63 22 81
-26 17 -38 9 -18 -11z"/>
<path d="M1393 537 c-2 -4 -3 -17 -2 -30 2 -12 0 -28 -4 -34 -6 -9 -2 -13 10
-13 16 0 18 6 15 35 -4 30 -1 35 17 35 12 0 21 4 21 9 0 11 -50 9 -57 -2z"/>
<path d="M1501 533 c10 -11 10 -17 3 -20 -24 -8 -47 -31 -41 -40 4 -6 23 -11
42 -11 24 0 33 4 28 12 -5 6 -9 22 -9 36 -3 39 -3 40 -20 40 -14 0 -15 -2 -3
-17z m9 -42 c0 -12 -20 -25 -27 -18 -7 7 6 27 18 27 5 0 9 -4 9 -9z"/>
<path d="M1559 534 c-11 -13 -10 -17 5 -26 9 -5 21 -19 26 -31 8 -21 8 -21 16
-3 5 14 1 24 -14 37 -27 22 -28 33 -2 26 11 -3 18 -1 14 4 -8 14 -30 11 -45
-7z"/>
<path d="M1643 543 c-19 -7 -16 -27 7 -43 26 -19 26 -34 0 -27 -11 3 -18 1
-14 -4 8 -13 30 -11 43 4 8 11 6 18 -9 32 -24 21 -26 40 -5 31 8 -3 15 -1 15
4 0 11 -16 12 -37 3z"/>
<path d="M1706 528 c-24 -34 5 -75 44 -63 27 8 26 25 -1 18 -12 -4 -25 0 -30
8 -15 23 -10 29 22 29 31 0 37 19 9 28 -7 3 -10 0 -6 -7 4 -6 0 -11 -9 -11 -9
0 -13 5 -10 10 12 20 -4 10 -19 -12z"/>
<path d="M1802 540 c-4 -3 -7 -22 -7 -43 0 -30 4 -37 20 -37 11 0 16 4 10 8
-19 14 -11 54 13 63 12 5 22 11 22 14 0 6 -48 2 -58 -5z"/>
<path d="M1885 542 c-5 -4 -10 -24 -10 -44 0 -30 4 -38 18 -38 14 0 16 4 8 18
-5 9 -7 30 -4 45 6 29 4 31 -12 19z"/>
<path d="M1965 539 c17 -8 16 -9 -7 -6 -20 3 -29 -1 -33 -14 -14 -42 37 -78
63 -46 8 10 5 13 -16 12 -17 0 -28 6 -30 18 -3 13 3 17 28 17 28 0 31 2 20 15
-7 8 -20 15 -29 14 -12 0 -12 -2 4 -10z"/>
<path d="M50 495 c0 -20 6 -20 285 -20 280 -1 285 0 285 20 0 20 -5 20 -285
20 -279 0 -285 0 -285 -20z"/>
<path d="M2062 495 c3 -19 11 -20 283 -20 273 0 280 1 283 20 3 20 -2 20 -283
20 -280 0 -286 0 -283 -20z"/>
<path d="M1557 469 c7 -7 15 -10 18 -7 3 3 -2 9 -12 12 -14 6 -15 5 -6 -5z"/>
</g>
</svg>
