<svg xmlns="http://www.w3.org/2000/svg" xmlns:xlink="http://www.w3.org/1999/xlink" width="324" height="247" viewBox="0 0 324 247">
  <defs>
    <clipPath id="clip-path">
      <rect width="324" height="247" fill="none"/>
    </clipPath>
    <filter id="DORA_S" x="27" y="99" width="271" height="105" filterUnits="userSpaceOnUse">
      <feOffset dy="3" input="SourceAlpha"/>
      <feGaussianBlur stdDeviation="3" result="blur"/>
      <feFlood flood-opacity="0.431"/>
      <feComposite operator="in" in2="blur"/>
      <feComposite in="SourceGraphic"/>
    </filter>
    <filter id="cafe_brasserie" x="86" y="182" width="153" height="47" filterUnits="userSpaceOnUse">
      <feOffset dy="3" input="SourceAlpha"/>
      <feGaussianBlur stdDeviation="3" result="blur-2"/>
      <feFlood flood-opacity="0.431"/>
      <feComposite operator="in" in2="blur-2"/>
      <feComposite in="SourceGraphic"/>
    </filter>
    <filter id="Path_1" x="27" y="23.462" width="270" height="100.657" filterUnits="userSpaceOnUse">
      <feOffset dy="3" input="SourceAlpha"/>
      <feGaussianBlur stdDeviation="3" result="blur-3"/>
      <feFlood flood-opacity="0.431"/>
      <feComposite operator="in" in2="blur-3"/>
      <feComposite in="SourceGraphic"/>
    </filter>
  </defs>
  <g id="logo" clip-path="url(#clip-path)">
    <rect id="Rectangle_2" data-name="Rectangle 2" width="324" height="247" fill="#ab192d"/>
    <g transform="matrix(1, 0, 0, 1, 0, 0)" filter="url(#DORA_S)">
      <text id="DORA_S-2" data-name="DORA&apos;S" transform="translate(36 172)" fill="#fff" font-size="67" font-family="EBGaramond-Bold, EB Garamond" font-weight="700"><tspan x="0" y="0">DORA&apos;S</tspan></text>
    </g>
    <g transform="matrix(1, 0, 0, 1, 0, 0)" filter="url(#cafe_brasserie)">
      <text id="cafe_brasserie-2" data-name="cafe &amp; brasserie" transform="translate(95 210)" fill="#fff" font-size="22" font-family="EBGaramond-Medium, EB Garamond" font-weight="500"><tspan x="0" y="0">cafe &amp; brasserie</tspan></text>
    </g>
    <g transform="matrix(1, 0, 0, 1, 0, 0)" filter="url(#Path_1)">
      <path id="Path_1-2" data-name="Path 1" d="M169,132.9l30.906-22.818,22.54,16.935,42.116-41.071,17.409,22.3L318.66,54.083l50.134,59.657,25.173-17.116L421,128.977l-29.9-22.818-23.307,18.857L318.66,68.566,281.971,120.7,265.543,97.515,221.827,136.74l-21.921-18Z" transform="translate(-133 -24.62)" fill="#fff"/>
    </g>
  </g>
</svg>
